<svg width="270" height="228" viewBox="0 0 270 228" fill="none" xmlns="http://www.w3.org/2000/svg">
<g clip-path="url(#clip0_2457_54050)">
<path d="M219.894 110.041C219.894 113.245 219.759 116.416 219.49 119.555C219.278 122.005 218.989 124.434 218.622 126.84C218.233 129.387 217.756 131.904 217.191 134.391V134.394C216.822 136.03 216.416 137.653 215.974 139.262C214.692 143.942 213.097 148.529 211.201 152.995C210.789 153.966 210.363 154.931 209.924 155.889C208.263 159.517 206.403 163.051 204.352 166.475C198.602 176.088 191.424 184.77 183.064 192.223C182.16 193.028 181.242 193.82 180.313 194.598C160.576 211.1 135.665 220.122 109.947 220.083C49.2241 220.083 0 170.816 0 110.041C0 49.2665 49.2241 0.000136294 109.947 0.000136294C134.779 -0.0390519 158.887 8.37355 178.311 23.8567C179.222 24.5789 180.121 25.3172 181.009 26.0719C185.34 29.7484 189.382 33.7531 193.1 38.0503H193.103C210.418 58.0269 219.933 83.5954 219.894 110.041Z" fill="#35383F"/>
<path d="M32.456 129.049C21.9822 122.81 14.0771 111.15 15.1034 98.9949C24.6789 108.167 37.1875 113.654 50.4161 114.485C55.5189 114.787 61.2259 114.591 64.9822 118.061C67.3195 120.22 68.4075 123.471 68.5859 126.649C68.7643 129.827 68.1282 132.989 67.4953 136.109L67.7131 136.873C55.5248 136.919 42.9297 135.288 32.456 129.049Z" fill="#262A35"/>
<path d="M15.359 98.9819C19.5556 108.164 26.5362 115.789 35.3093 120.775C37.1953 121.831 39.2004 122.739 41.3312 123.16C43.4113 123.554 45.5589 123.384 47.551 122.667C49.4219 122.035 51.2625 121.172 53.2541 121.007C55.3534 120.833 57.2969 121.644 58.8239 123.063C60.6921 124.8 61.8254 127.106 62.8552 129.399C63.9988 131.945 65.1462 134.608 67.3386 136.438C67.6043 136.66 67.2448 137.06 66.9796 136.838C63.1651 133.653 62.5425 128.318 59.4934 124.567C58.0706 122.816 56.1121 121.484 53.7855 121.519C51.751 121.55 49.8522 122.438 47.9634 123.094C45.9802 123.782 43.9934 124.106 41.8997 123.803C39.7579 123.493 37.7131 122.662 35.8084 121.658C31.5061 119.35 27.5932 116.379 24.213 112.854C20.3329 108.853 17.1653 104.216 14.8473 99.1458C14.704 98.8319 15.2166 98.6701 15.359 98.9819Z" fill="#35383F"/>
<path d="M32.3895 119.336C31.3539 120.696 29.8692 121.643 28.2005 122.008C26.5317 122.373 24.7876 122.133 23.2796 121.329C22.9751 121.166 23.2147 120.685 23.5196 120.848C24.9225 121.599 26.5472 121.823 28.1004 121.479C29.6536 121.136 31.0331 120.248 31.9899 118.977C32.1981 118.701 32.5965 119.061 32.3895 119.336Z" fill="#35383F"/>
<path d="M46.6444 123.112C46.2086 119.644 44.4829 116.469 41.8116 114.218C41.5467 113.995 41.9061 113.596 42.1706 113.818C44.9461 116.166 46.7352 119.474 47.1808 123.083C47.223 123.427 46.6864 123.454 46.6444 123.112Z" fill="#35383F"/>
<path d="M20.9989 108.6C21.5091 108.158 21.9015 107.595 22.1409 106.963C22.3802 106.332 22.4591 105.65 22.3703 104.98C22.3237 104.637 22.8604 104.611 22.9067 104.952C23.0014 105.692 22.9134 106.445 22.6505 107.143C22.3876 107.842 21.9577 108.466 21.3985 108.96C21.3497 109.011 21.2833 109.041 21.2128 109.045C21.1424 109.049 21.0731 109.025 21.0192 108.98C20.9665 108.932 20.9348 108.865 20.931 108.794C20.9273 108.723 20.9516 108.653 20.9989 108.6Z" fill="#35383F"/>
<path d="M49.006 75.4456C49.0411 75.6591 49.0763 75.8727 49.1156 76.0883C49.6033 78.957 50.3231 81.7814 51.2678 84.5335C51.3374 84.7475 51.4113 84.9632 51.4869 85.1747C53.8336 91.7809 57.3853 97.8936 61.9616 103.202C63.7845 105.313 65.7652 107.282 67.8866 109.091C70.8164 111.591 74.1918 114.068 76.0703 117.295C76.27 117.629 76.4489 117.976 76.6059 118.332L68.6277 136.548C68.5888 136.58 68.5539 136.614 68.515 136.647L68.2296 137.389C68.1137 137.303 67.9953 137.212 67.8794 137.126C67.812 137.076 67.7463 137.023 67.6788 136.974C67.6344 136.939 67.5901 136.905 67.5481 136.876C67.5332 136.865 67.5185 136.854 67.5078 136.844C67.4658 136.816 67.4298 136.785 67.3919 136.758C66.7287 136.249 66.068 135.735 65.4096 135.215C65.4055 135.213 65.4055 135.213 65.4031 135.207C60.397 131.232 55.6785 126.804 51.7816 121.799C51.6644 121.648 51.543 121.496 51.4294 121.337C49.6854 119.072 48.1293 116.667 46.7766 114.148C46.0404 112.766 45.3745 111.348 44.7816 109.899C43.2567 106.151 42.3302 102.187 42.0362 98.1511C41.4513 90.1058 43.4436 81.9629 48.607 75.9046C48.7391 75.7497 48.8696 75.5986 49.006 75.4456Z" fill="#262A35"/>
<path d="M49.2189 75.5879C47.0461 85.4482 48.0327 95.743 52.0385 105.01C52.9088 106.99 53.9638 108.923 55.4119 110.543C56.8355 112.112 58.6527 113.27 60.6748 113.897C62.5484 114.521 64.5371 114.941 66.2267 116.009C68.0077 117.135 69.0718 118.953 69.4369 121.007C69.8837 123.52 69.4017 126.043 68.8446 128.495C68.2261 131.217 67.5405 134.034 68.1897 136.817C68.2683 137.154 67.741 137.257 67.6624 136.92C66.533 132.078 69.245 127.443 69.0673 122.611C68.9843 120.356 68.2219 118.112 66.3431 116.738C64.7001 115.536 62.6498 115.101 60.7472 114.487C58.7495 113.841 56.9687 112.903 55.4792 111.399C53.9555 109.861 52.8228 107.965 51.9057 106.016C49.8591 101.581 48.5221 96.8505 47.9435 91.9993C47.2526 86.4663 47.5124 80.8558 48.7118 75.4104C48.7861 75.0734 49.2928 75.2531 49.2189 75.5879Z" fill="#35383F"/>
<path d="M50.574 102.102C48.9293 102.564 47.1741 102.425 45.6221 101.711C44.07 100.997 42.8221 99.7541 42.1011 98.2042C41.9563 97.8901 42.4372 97.6501 42.5822 97.9646C43.2509 99.4091 44.4134 100.567 45.8601 101.229C47.3067 101.891 48.9421 102.013 50.4711 101.574C50.8035 101.479 50.9045 102.008 50.574 102.102Z" fill="#35383F"/>
<path d="M59.6835 113.707C61.4214 110.675 61.9539 107.1 61.1749 103.693C61.0975 103.356 61.6248 103.253 61.7022 103.59C62.5062 107.137 61.9445 110.857 60.1291 114.007C59.9558 114.307 59.5112 114.005 59.6835 113.707Z" fill="#35383F"/>
<path d="M47.9367 86.6661C48.6102 86.6202 49.2619 86.4076 49.833 86.0474C50.4042 85.6872 50.8771 85.1906 51.2091 84.6023C51.3785 84.3 51.8229 84.6024 51.6547 84.9026C51.2848 85.5509 50.7619 86.0987 50.1317 86.4981C49.5015 86.8975 48.7832 87.1364 48.0395 87.1938C47.9699 87.2051 47.8985 87.1895 47.84 87.15C47.7815 87.1106 47.7402 87.0503 47.7245 86.9814C47.7112 86.9115 47.726 86.8391 47.7658 86.7801C47.8055 86.7211 47.8669 86.6801 47.9367 86.6661Z" fill="#35383F"/>
<path d="M76.1611 25.5043L89.6182 183.17L62.7041 185.196V27.5103C65.9112 25.3863 70.5148 25.054 76.1611 25.5043Z" fill="#262A35"/>
<path d="M142.587 25.5043L129.13 183.17L156.044 185.196V27.5103C152.837 25.3863 148.233 25.054 142.587 25.5043Z" fill="#262A35"/>
<path d="M152.014 191.712H66.4476C65.0755 191.711 63.7601 191.164 62.7899 190.193C61.8197 189.222 61.274 187.906 61.2725 186.533V29.8241C61.274 28.4509 61.8198 27.1343 62.79 26.1633C63.7601 25.1923 65.0756 24.6461 66.4476 24.6445H152.014C153.387 24.6461 154.702 25.1923 155.672 26.1633C156.642 27.1343 157.188 28.4509 157.19 29.8241V186.533C157.188 187.906 156.642 189.222 155.672 190.193C154.702 191.164 153.387 191.711 152.014 191.712ZM66.4476 26.3639C65.531 26.3649 64.6522 26.7298 64.0041 27.3785C63.356 28.0272 62.9914 28.9067 62.9904 29.8241V186.533C62.9914 187.45 63.356 188.329 64.0041 188.978C64.6522 189.627 65.531 189.992 66.4476 189.993H152.014C152.931 189.992 153.81 189.627 154.458 188.978C155.106 188.329 155.471 187.45 155.472 186.533V29.8241C155.471 28.9067 155.106 28.0272 154.458 27.3785C153.81 26.7298 152.931 26.3649 152.014 26.3639L66.4476 26.3639Z" fill="#262A35"/>
<path d="M156.331 50.7222H62.1318V52.4416H156.331V50.7222Z" fill="#262A35"/>
<path d="M156.331 79.3787H62.1318V81.0981H156.331V79.3787Z" fill="#262A35"/>
<path d="M92.7003 25.5044H90.9824V103.737H92.7003V25.5044Z" fill="#262A35"/>
<path d="M127.48 25.5044H125.762V103.737H127.48V25.5044Z" fill="#262A35"/>
<path d="M167.068 196.441H54.258C52.2077 196.441 50.2414 195.625 48.7916 194.174C47.3418 192.723 46.5273 190.755 46.5273 188.703C46.5273 186.651 47.3418 184.683 48.7916 183.232C50.2414 181.781 52.2077 180.966 54.258 180.966H167.068C169.118 180.966 171.085 181.781 172.534 183.232C173.984 184.683 174.799 186.651 174.799 188.703C174.799 190.755 173.984 192.723 172.534 194.174C171.085 195.625 169.118 196.441 167.068 196.441Z" fill="#262A35"/>
<path d="M156.331 99.7249H62.7041V105.456H156.331V99.7249Z" fill="#262A35"/>
<path d="M92.9664 117.965L92.8476 117.907C86.4651 114.822 78.107 114.824 65.7465 117.917L65.6145 117.951L65.5749 117.82C64.2674 113.529 62.7861 108.669 65.5688 106.278C65.6078 99.2611 71.7574 93.5635 79.3109 93.5635C86.8629 93.5635 93.0116 99.2581 93.0529 106.273C97.1923 109.441 95.2195 114.121 93.0333 117.851L92.9664 117.965Z" fill="#2F2E41"/>
<path d="M132.196 102.94C132.082 103.509 131.844 104.045 131.5 104.512C131.156 104.979 130.714 105.364 130.205 105.642C129.696 105.919 129.132 106.081 128.554 106.117C127.975 106.152 127.396 106.061 126.857 105.848L104.301 128.534L102.289 121.49L124.691 100.423C125.108 99.54 125.834 98.8408 126.731 98.4579C127.629 98.075 128.635 98.0349 129.561 98.3452C130.486 98.6555 131.265 99.2946 131.751 100.141C132.236 100.988 132.395 101.984 132.196 102.94Z" fill="#FFB6B6"/>
<path d="M76.4502 124.78C76.4502 124.78 74.4038 129.421 79.4532 132.284C84.5027 135.146 102.151 131.191 105.014 130.639C107.878 130.087 118.573 114.068 118.573 114.068L117.061 106.212L102.876 118.535L76.4502 124.78Z" fill="url(#paint0_linear_2457_54050)"/>
<path d="M72.7249 150.447L73.0113 155.892C73.0113 155.892 72.1662 160.715 72.8612 161.755C73.551 162.791 92.374 162.922 92.374 162.922C92.374 162.922 93.6177 156.211 94.689 150.338L72.7249 150.447Z" fill="#FFB6B6"/>
<path d="M126.844 222.438L130.779 221.643L129.652 205.734L123.845 206.908L126.844 222.438Z" fill="#FFB6B6"/>
<path d="M132.481 201.736L136.139 200.09L131.394 184.868L125.994 187.298L132.481 201.736Z" fill="#FFB6B6"/>
<path d="M135.668 193.159L128.779 197.063L111.791 169.741C99.8657 177.783 88.2039 181.634 76.4478 183.689C72.4732 184.397 68.4207 184.038 67.6577 179.989C67.622 179.8 67.5935 179.609 67.5723 179.418C67.103 174.995 72.5996 169.327 73.2983 163.916L88.3417 163.012L90.1968 165.392L107.594 154.687C111.093 152.534 115.694 153.699 117.872 157.288C117.987 157.478 118.094 157.672 118.192 157.871L135.668 193.159Z" fill="#2F2E41"/>
<path d="M131.451 211.539L123.569 212.272L109.278 183.019C95.1065 185.459 81.737 186.24 70.1729 183.289C66.2576 182.304 63.8642 178.258 64.8273 174.252C64.8723 174.064 64.9243 173.879 64.9834 173.696C66.3674 169.469 69.9902 166.479 72.8445 161.831L93.6934 162.148L91.3648 170.189L111.618 167.566C115.691 167.039 119.411 169.99 119.926 174.157C119.954 174.377 119.971 174.598 119.98 174.82L131.451 211.539Z" fill="#2F2E41"/>
<path d="M80.8662 113.806C85.5418 113.806 89.3321 110.012 89.3321 105.333C89.3321 100.653 85.5418 96.8596 80.8662 96.8596C76.1907 96.8596 72.4004 100.653 72.4004 105.333C72.4004 110.012 76.1907 113.806 80.8662 113.806Z" fill="#FFB6B6"/>
<path d="M75.9033 116.865L83.6657 117.779C83.9931 117.817 84.3003 117.957 84.5445 118.179C84.7887 118.4 84.9577 118.692 85.0281 119.015L86.2626 124.668L93.9579 133.738C93.9579 133.738 96.7212 138.924 95.685 144.801C94.6487 150.678 94.1933 155.045 94.1933 155.045C94.1933 155.045 73.5508 162.792 72.86 161.754C72.1691 160.717 71.9449 156.006 71.9449 156.006L69.1816 125.238C69.1816 125.238 72.2904 120.052 74.0174 120.052C75.1321 120.015 74.9891 117.504 75.9033 116.865Z" fill="url(#paint1_linear_2457_54050)"/>
<path d="M94.4026 156.937C95.4911 156.937 96.3736 155.877 96.3736 154.57C96.3736 153.262 95.4911 152.203 94.4026 152.203C93.3141 152.203 92.4316 153.262 92.4316 154.57C92.4316 155.877 93.3141 156.937 94.4026 156.937Z" fill="url(#paint2_linear_2457_54050)"/>
<path d="M124.891 218.342L130.89 215.333L132.021 217.973L139.607 219.508C139.982 219.584 140.323 219.777 140.58 220.061C140.837 220.344 140.996 220.702 141.036 221.083C141.075 221.463 140.991 221.846 140.798 222.176C140.604 222.506 140.31 222.765 139.958 222.916L132.628 226.061L130.246 223.991L130.872 226.814L128.108 228L124.891 218.342Z" fill="#2F2E41"/>
<path d="M130.764 200.469L136.709 197.355L137.886 199.975L145.499 201.376C145.874 201.445 146.219 201.633 146.48 201.911C146.742 202.19 146.908 202.545 146.954 202.925C147 203.305 146.924 203.69 146.736 204.023C146.548 204.356 146.258 204.62 145.91 204.777L138.636 208.05L136.218 206.023L136.893 208.835L134.15 210.069L130.764 200.469Z" fill="#2F2E41"/>
<path d="M76.029 102.675C73.7924 102.679 71.6094 101.989 69.7798 100.702L69.7188 100.659V100.584C69.7212 98.4191 70.5817 96.3431 72.1115 94.812C73.6413 93.2809 75.7154 92.4197 77.8789 92.4172H81.3147C83.4782 92.4197 85.5523 93.2809 87.0821 94.812C88.6119 96.3431 89.4724 98.4191 89.4748 100.584C89.4725 101.08 89.277 101.555 88.9299 101.909C88.5828 102.262 88.1116 102.466 87.6165 102.477L76.222 102.673C76.1577 102.674 76.0931 102.675 76.029 102.675Z" fill="#2F2E41"/>
<path d="M90.0473 99.0159C91.1428 98.3829 91.3259 96.6475 90.4562 95.1398C89.5865 93.6321 87.9933 92.9231 86.8977 93.5561C85.8022 94.1892 85.6191 95.9246 86.4888 97.4323C87.3585 98.94 88.9517 99.649 90.0473 99.0159Z" fill="#2F2E41"/>
<path d="M72.9137 97.334C74.1436 96.1029 74.4155 94.3792 73.521 93.4839C72.6265 92.5887 70.9043 92.8608 69.6743 94.0918C68.4443 95.3229 68.1724 97.0466 69.0669 97.9419C69.9615 98.8371 71.6837 98.565 72.9137 97.334Z" fill="#2F2E41"/>
<path d="M147.837 174.805H139.387C139.197 174.805 139.008 174.846 138.835 174.926C138.662 175.006 138.509 175.123 138.386 175.268C138.074 175.211 137.753 175.229 137.45 175.319C137.146 175.41 136.868 175.572 136.639 175.791C136.41 176.01 136.236 176.28 136.132 176.58C136.027 176.879 135.995 177.199 136.038 177.513C136.081 177.828 136.198 178.127 136.379 178.387C136.56 178.648 136.8 178.861 137.08 179.011C137.36 179.16 137.671 179.241 137.987 179.246C138.304 179.252 138.618 179.183 138.903 179.043L139.604 181.323C139.687 181.593 139.854 181.829 140.081 181.997C140.308 182.165 140.583 182.256 140.866 182.256H146.359C146.642 182.256 146.917 182.165 147.144 181.997C147.371 181.829 147.538 181.593 147.621 181.323L149.1 176.515C149.16 176.317 149.174 176.108 149.139 175.904C149.104 175.701 149.022 175.508 148.9 175.341C148.777 175.175 148.617 175.04 148.432 174.947C148.248 174.853 148.044 174.805 147.837 174.805ZM138.029 178.674C137.65 178.674 137.285 178.523 137.017 178.254C136.748 177.985 136.598 177.621 136.598 177.241C136.598 176.861 136.748 176.496 137.017 176.228C137.285 175.959 137.65 175.808 138.029 175.808C138.055 175.808 138.08 175.814 138.106 175.816C138.049 176.046 138.056 176.288 138.126 176.515L138.73 178.482C138.517 178.606 138.276 178.672 138.029 178.674Z" fill="#3F3D56"/>
<path d="M110.105 168.584C109.528 168.638 108.947 168.564 108.401 168.368C107.856 168.172 107.36 167.859 106.949 167.45C106.537 167.042 106.22 166.548 106.02 166.004C105.82 165.459 105.742 164.878 105.79 164.3L77.6055 149.183L83.7702 145.232L110.362 160.666C111.326 160.813 112.204 161.308 112.828 162.059C113.452 162.81 113.779 163.763 113.747 164.739C113.716 165.715 113.328 166.646 112.656 167.354C111.985 168.063 111.077 168.501 110.105 168.584Z" fill="#FFB6B6"/>
<path d="M73.2066 121.402C73.2066 121.402 68.1769 120.772 66.886 126.435C65.5952 132.097 74.4437 147.883 75.7938 150.47C77.1439 153.057 95.545 158.715 95.545 158.715L102.631 155.011L86.7654 144.948L73.2066 121.402Z" fill="url(#paint3_linear_2457_54050)"/>
<path d="M108.658 98.0054H110.376C111.212 98.0054 112.013 98.3375 112.603 98.9286C113.194 99.5198 113.526 100.322 113.526 101.158H105.509C105.509 100.322 105.841 99.5198 106.431 98.9286C107.022 98.3375 107.823 98.0054 108.658 98.0054Z" fill="#262A35"/>
<path d="M54.1835 39.1923C63.583 39.1923 71.2029 31.5659 71.2029 22.1583C71.2029 12.7506 63.583 5.12427 54.1835 5.12427C44.7839 5.12427 37.1641 12.7506 37.1641 22.1583C37.1641 31.5659 44.7839 39.1923 54.1835 39.1923Z" fill="url(#paint4_linear_2457_54050)"/>
<path d="M106.293 21.2707C101.789 16.5417 96.5579 12.2276 90.3652 9.94782C88.6403 9.31009 86.8517 8.86023 85.0304 8.60603C85.0157 8.60402 85.0019 8.60699 84.9873 8.6058C84.9577 8.59816 84.9276 8.59226 84.8973 8.58813C82.3501 8.26334 79.7646 8.41957 77.2749 9.0487C76.0573 9.35449 74.8696 9.76862 73.7258 10.2861C72.5779 10.8466 71.4657 11.4775 70.3955 12.1751C68.1302 13.5322 65.6362 14.4634 63.0363 14.9229C61.7313 15.158 60.4096 15.2878 59.0838 15.3111C57.9334 15.3342 56.8486 15.3742 55.7587 15.7902C54.5944 16.2283 53.5486 16.9328 52.7047 17.8473C51.8608 18.7619 51.2422 19.8612 50.8982 21.0575C50.8716 21.1641 50.8796 21.2763 50.921 21.378C50.9623 21.4797 51.0349 21.5656 51.1282 21.6233C51.423 21.8346 51.7104 22.0744 52.0202 22.2627C52.2958 22.3889 52.5901 22.4693 52.8915 22.5006C53.384 22.6046 53.8771 22.7055 54.3709 22.8035C56.1898 23.1642 58.0163 23.4835 59.8503 23.7613C63.5614 24.3236 67.2926 24.7197 71.0438 24.9496C78.5585 25.4051 86.099 25.1783 93.5729 24.2719C97.7732 23.7627 101.945 23.0405 106.072 22.1081C106.156 22.0837 106.232 22.038 106.292 21.9756C106.353 21.9132 106.397 21.8361 106.419 21.7519C106.441 21.6676 106.441 21.579 106.419 21.4947C106.397 21.4104 106.354 21.3333 106.293 21.2707Z" fill="#262A35"/>
<path d="M54.9912 32.6597C53.2662 32.022 51.4776 31.5721 49.6564 31.3179C49.6417 31.3159 49.6278 31.3189 49.6133 31.3177C49.5836 31.3101 49.5536 31.3042 49.5233 31.3C46.976 30.9753 44.3905 31.1315 41.9008 31.7606C40.6833 32.0664 39.4955 32.4805 38.3517 32.9981C37.2039 33.5585 36.0917 34.1894 35.0215 34.887C32.7562 36.2441 30.2622 37.1754 27.6623 37.6348C26.3573 37.8699 25.0355 37.9998 23.7098 38.023C22.5594 38.0461 21.4746 38.0861 20.3847 38.5021C19.2204 38.9403 18.1746 39.6447 17.3307 40.5593C16.4868 41.4738 15.8682 42.5731 15.5241 43.7694C15.4976 43.8759 15.5056 43.9882 15.547 44.0899C15.5883 44.1916 15.6609 44.2775 15.7542 44.3352C16.049 44.5465 16.3364 44.7863 16.6462 44.9746C16.9217 45.1008 17.2161 45.1812 17.5175 45.2124C18.01 45.3165 18.5031 45.4174 18.9968 45.5153C20.8158 45.876 22.6422 46.1953 24.4763 46.4732C28.1874 47.0355 31.9186 47.4316 35.6698 47.6615C43.1845 48.117 50.725 47.8902 58.1988 46.9838C62.3992 46.4746 66.571 45.7524 70.6982 44.82C70.7818 44.7955 70.8576 44.7499 70.9184 44.6875C70.9791 44.6251 71.0227 44.548 71.0449 44.4637C71.0672 44.3795 71.0673 44.2909 71.0452 44.2066C71.0232 44.1223 70.9797 44.0452 70.9191 43.9826C66.415 39.2536 61.1839 34.9395 54.9912 32.6597Z" fill="#262A35"/>
<path d="M177.726 159.645L164.638 142.437L154.311 148.281L176.194 174.29L177.726 159.645Z" fill="#3F3D56"/>
<path d="M207.874 131.671C208.165 138.883 209.281 146.037 211.201 152.995C210.789 153.966 210.363 154.931 209.924 155.889C208.263 159.517 206.403 163.051 204.352 166.475C198.602 176.088 191.424 184.77 183.064 192.223C182.16 193.028 181.242 193.82 180.313 194.598C175.013 187.285 172.153 179.215 171.022 170.911C170.879 169.856 170.761 168.79 170.672 167.73V167.724C170.455 165.147 170.386 162.56 170.463 159.975C170.466 159.769 170.472 159.56 170.481 159.351C170.581 156.588 170.83 153.82 171.205 151.077V151.075C171.248 150.759 171.291 150.444 171.34 150.129C171.477 149.183 171.632 148.238 171.801 147.298C172.784 141.877 174.156 136.534 175.906 131.31V131.307C175.955 131.155 176.004 131.006 176.058 130.857C176.247 130.29 176.439 129.728 176.637 129.167C176.649 129.123 176.664 129.08 176.682 129.038C176.937 128.304 177.198 127.576 177.464 126.854C177.536 126.653 177.61 126.453 177.687 126.252C177.988 125.447 178.294 124.648 178.606 123.859C178.704 123.607 178.804 123.355 178.904 123.106C178.981 122.914 179.056 122.722 179.136 122.533V122.53C179.591 121.404 180.052 120.299 180.519 119.217C181.828 116.174 183.173 113.311 184.485 110.672L184.487 110.669C189.93 99.7421 194.878 92.6467 194.878 92.6467L213.457 98.6646C211.241 102.599 209.526 108.402 208.587 115.248C207.863 120.69 207.625 126.185 207.874 131.668L207.874 131.671Z" fill="#3F3D56"/>
<path d="M176.994 129.92C176.885 129.665 176.762 129.416 176.636 129.167C175.983 127.901 175.142 126.742 174.142 125.728C173.993 125.576 173.839 125.424 173.678 125.281C171.954 123.691 169.857 122.562 167.581 121.998C165.305 121.434 162.923 121.453 160.657 122.054L160.645 122.06L160.559 122.083L160.579 122.18C160.665 122.634 160.79 123.08 160.952 123.513C160.995 123.63 161.043 123.742 161.092 123.854C161.112 123.905 161.138 123.951 161.161 124.003C161.161 124.003 161.158 124.006 161.163 124.006C161.163 124.008 161.166 124.011 161.166 124.014C161.221 124.12 161.272 124.229 161.329 124.332C161.212 124.22 161.1 124.106 160.992 123.988C160.886 123.879 160.788 123.765 160.691 123.65C160.357 123.261 160.056 122.845 159.789 122.407L159.743 122.329L159.663 122.361C158.583 122.735 157.552 123.241 156.594 123.865L156.491 123.934C155.759 124.415 154.935 124.736 154.071 124.877C153.207 125.018 152.324 124.976 151.477 124.754C150.143 124.409 148.752 124.346 147.392 124.569C146.032 124.791 144.733 125.294 143.578 126.046C142.812 126.545 142.12 127.149 141.522 127.84C141.47 127.9 141.419 127.963 141.367 128.023C141.258 128.155 141.155 128.29 141.055 128.427C139.979 129.867 139.318 131.575 139.145 133.365L139.14 133.431L139.194 133.468C140.163 134.133 141.259 134.589 142.412 134.809C141.688 134.91 140.954 134.929 140.225 134.864H140.222C139.891 134.836 139.563 134.79 139.237 134.726L139.177 134.715H139.174L139.1 134.7L139.111 134.838C139.197 136.589 139.747 138.285 140.706 139.752L140.735 139.792C140.745 139.807 140.755 139.822 140.763 139.838C141.169 140.46 141.507 141.124 141.771 141.819C142.44 143.544 142.588 145.429 142.195 147.237C141.75 149.172 141.898 151.196 142.619 153.045C143.34 154.895 144.601 156.484 146.238 157.605C147.675 158.595 149.35 159.184 151.091 159.31C151.328 159.331 151.569 159.342 151.809 159.342C153.186 159.346 154.549 159.062 155.809 158.508L155.855 158.491L155.867 158.439C156.109 157.656 156.449 156.907 156.88 156.21C156.739 156.759 156.668 157.325 156.668 157.892V158.081L156.831 157.987C156.972 157.903 157.115 157.815 157.244 157.731C158.017 157.226 158.718 156.617 159.325 155.92C159.563 155.645 159.803 155.379 160.055 155.112L160.058 155.109C160.548 154.588 161.066 154.078 161.604 153.591C162.75 152.561 163.975 151.625 165.269 150.791C166.563 149.96 167.915 149.224 169.315 148.59H169.318C169.475 148.516 169.636 148.444 169.793 148.375C170.49 148.071 171.162 147.711 171.8 147.298C171.823 147.283 171.843 147.272 171.863 147.258C174.631 145.444 176.666 142.706 177.605 139.531C178.545 136.356 178.328 132.95 176.994 129.92Z" fill="url(#paint5_linear_2457_54050)"/>
<path opacity="0.15" d="M142.667 151.306C142.589 151.654 142.529 152.007 142.489 152.362C141.956 150.676 141.879 148.878 142.266 147.153C142.325 146.889 142.37 146.622 142.405 146.353C142.934 147.951 143.024 149.661 142.667 151.306Z" fill="black"/>
<path opacity="0.15" d="M142.883 138.876C142.035 138.993 141.175 138.998 140.326 138.888C140.103 138.468 139.911 138.033 139.751 137.585C140.696 138.224 141.762 138.663 142.883 138.876Z" fill="black"/>
<path opacity="0.15" d="M140.258 134.772C139.945 135.573 139.737 136.411 139.64 137.266C139.378 136.452 139.224 135.607 139.181 134.753L139.174 134.616L139.309 134.642C139.623 134.701 139.94 134.744 140.258 134.772Z" fill="black"/>
<path opacity="0.15" d="M143.652 125.961C144.806 125.208 146.104 124.704 147.463 124.481C148.822 124.259 150.213 124.322 151.547 124.667C152.393 124.891 153.278 124.934 154.142 124.793C155.006 124.652 155.831 124.33 156.563 123.848L156.666 123.78C157.624 123.154 158.654 122.648 159.734 122.272L159.817 122.244L159.862 122.318C160.289 123.025 160.806 123.673 161.401 124.245C161.04 123.572 160.787 122.846 160.651 122.093L160.632 121.994L160.73 121.968C162.855 121.405 165.084 121.353 167.234 121.816C169.384 122.279 171.394 123.244 173.1 124.633C174.806 126.022 176.16 127.794 177.051 129.806C177.942 131.818 178.346 134.013 178.228 136.21C177.777 134.419 176.976 132.734 175.87 131.255C174.764 129.775 173.375 128.53 171.785 127.592C170.194 126.654 168.434 126.04 166.605 125.788C164.776 125.535 162.916 125.649 161.131 126.121L161.033 126.147L161.053 126.246C161.188 126.999 161.441 127.725 161.802 128.399C161.207 127.826 160.69 127.178 160.263 126.471L160.218 126.397L160.135 126.425C159.055 126.801 158.025 127.307 157.068 127.933L156.964 128.002C156.232 128.483 155.408 128.805 154.543 128.946C153.679 129.087 152.795 129.044 151.948 128.82C149.732 128.244 147.384 128.456 145.306 129.419C143.228 130.382 141.548 132.036 140.553 134.1C140.109 133.887 139.68 133.647 139.266 133.381L139.21 133.345L139.217 133.279C139.359 131.804 139.832 130.38 140.6 129.113C141.367 127.846 142.411 126.769 143.652 125.961Z" fill="black"/>
<path d="M250.094 52.7396L249.822 52.559L249.625 52.817C248.096 54.7437 246.879 56.8992 246.02 59.2045C246.139 56.5488 246.602 53.9198 247.4 51.3841L247.486 51.1176L247.24 50.9772C244.036 49.1616 240.623 47.745 237.075 46.759L236.689 46.6558C233.97 45.9092 231.439 44.5974 229.261 42.806C227.083 41.0146 225.307 38.7839 224.048 36.2592C221.123 30.465 216.501 25.7015 210.801 22.6043C205.1 19.5071 198.592 18.2235 192.143 18.9248H192.14C192.072 18.9306 192 18.9392 191.931 18.9478C191.814 18.9592 191.699 18.9736 191.585 18.9879C191.35 19.0194 191.121 19.0509 190.892 19.0853C190.697 19.114 190.5 19.1455 190.305 19.1799C190.202 19.1942 190.102 19.2114 190.001 19.2315C189.901 19.2487 189.798 19.2659 189.698 19.2859H189.695C187.773 19.6499 185.888 20.1919 184.066 20.905H184.063V20.9079L183.602 21.0884C183.127 21.2833 182.655 21.4896 182.188 21.7074C182.082 21.7561 181.979 21.8077 181.873 21.8564C181.844 21.8707 181.813 21.8851 181.784 21.9022C181.483 22.0455 181.186 22.1945 180.891 22.3522C180.848 22.3722 180.805 22.3951 180.762 22.4181L180.487 22.5642C179.883 22.8909 179.289 23.2376 178.706 23.6044C178.657 23.6331 178.612 23.6618 178.563 23.6933C178.511 23.7277 178.457 23.7621 178.406 23.7964C178.374 23.8136 178.343 23.8366 178.311 23.8566C178.222 23.9111 178.136 23.9684 178.05 24.0286C177.879 24.1403 177.707 24.2549 177.538 24.3724C177.363 24.4899 177.192 24.6132 177.02 24.7364L176.848 24.8596L176.879 25.0717C176.908 25.2465 176.934 25.4213 176.965 25.5932C176.994 25.7652 177.023 25.9342 177.054 26.1033C177.103 26.387 177.157 26.6678 177.212 26.9401C177.249 27.1206 177.283 27.2983 177.323 27.4731C177.36 27.6536 177.401 27.8342 177.444 28.0147C177.527 28.3872 177.615 28.7483 177.71 29.1036C177.756 29.2813 177.804 29.459 177.856 29.6338C177.884 29.7398 177.913 29.8458 177.945 29.949C177.967 30.0206 177.99 30.0923 178.013 30.1639C178.019 30.1869 178.025 30.2126 178.033 30.2384C178.04 30.2627 178.047 30.2866 178.056 30.3101C178.088 30.4161 178.119 30.5193 178.151 30.6196C178.168 30.674 178.185 30.7285 178.205 30.78C178.245 30.9033 178.288 31.0294 178.331 31.1497C178.377 31.2873 178.426 31.4248 178.474 31.5595C178.486 31.5939 178.497 31.6254 178.509 31.6598C178.517 31.6856 178.526 31.7114 178.537 31.7372C178.549 31.7658 178.56 31.7974 178.572 31.826C178.62 31.955 178.669 32.0868 178.72 32.2157C178.738 32.2616 178.755 32.3103 178.775 32.3562C179.239 33.5236 179.809 34.6459 180.478 35.709C179.737 35.0728 179.023 34.3984 178.337 33.6858C177.277 32.584 176.301 31.4049 175.416 30.1582C175.345 30.0608 175.273 29.9605 175.207 29.8602C175.073 29.6682 174.941 29.4762 174.812 29.2813C174.675 29.0807 174.543 28.8715 174.414 28.6652C174.328 28.5276 174.242 28.3872 174.159 28.2497C174.076 28.1179 173.999 27.9889 173.925 27.8571L173.701 27.4731H173.698V27.4759L173.384 27.7854C173.258 27.9087 173.132 28.0319 173.008 28.1551C169.16 32.0304 166.373 36.8314 164.914 42.0965L164.871 42.2541L164.828 42.4175C164.745 42.7098 164.662 42.9935 164.573 43.2829V43.2858C164.488 43.5723 164.396 43.8589 164.299 44.1397C164.21 44.4062 164.118 44.6699 164.021 44.9335C163.989 45.0223 163.955 45.1112 163.918 45.2C163.858 45.372 163.792 45.541 163.726 45.713C163.694 45.7903 163.663 45.8706 163.631 45.948C163.554 46.1371 163.477 46.3262 163.4 46.5125C163.388 46.5411 163.374 46.5727 163.359 46.6013C163.337 46.6586 163.311 46.7159 163.288 46.7704C163.228 46.9079 163.165 47.0484 163.105 47.1859C163.062 47.2747 163.022 47.3664 162.981 47.4553C162.964 47.4954 162.944 47.5355 162.927 47.5756C162.821 47.8049 162.712 48.0313 162.598 48.2548C162.469 48.5185 162.337 48.7821 162.197 49.04C162.074 49.2807 161.945 49.5157 161.81 49.7507C161.579 50.1662 161.335 50.5789 161.083 50.9801C160.986 51.1348 160.889 51.2895 160.788 51.4443C160.765 51.4815 160.742 51.5188 160.72 51.5532C160.637 51.6879 160.551 51.8168 160.462 51.9486C160.402 52.0375 160.342 52.1263 160.281 52.2123C160.181 52.367 160.075 52.516 159.967 52.6622C159.938 52.708 159.906 52.751 159.875 52.794C159.715 53.0175 159.554 53.2353 159.391 53.4531C159.385 53.456 159.385 53.4588 159.382 53.4617C159.377 53.4617 159.377 53.4646 159.374 53.4674C159.302 53.562 159.231 53.6566 159.156 53.7483C159.059 53.883 158.953 54.0148 158.847 54.1437C158.675 54.3615 158.495 54.5822 158.312 54.7971C158.306 54.8028 158.303 54.8086 158.297 54.8114C157.349 55.927 156.321 56.9728 155.222 57.9407C155.202 57.9579 155.188 57.9751 155.168 57.9895C155.013 58.1241 154.859 58.2588 154.698 58.3906C154.632 58.4451 154.567 58.4995 154.501 58.554C154.392 58.6457 154.28 58.7374 154.171 58.8205C154.159 58.8337 154.144 58.8452 154.128 58.8549C154.031 58.9351 153.937 59.0096 153.839 59.0841C153.722 59.1787 153.605 59.2675 153.484 59.3564C152.917 59.7862 152.335 60.1922 151.738 60.5743C151.649 60.6344 151.554 60.6946 151.463 60.7519C151.408 60.7863 151.354 60.8207 151.303 60.8494C151.085 60.9841 150.867 61.1159 150.65 61.242C150.432 61.3709 150.209 61.4941 149.988 61.6145C149.516 61.8724 149.049 62.1418 148.594 62.4226C148.365 62.5659 148.136 62.7092 147.91 62.8553C147.011 63.4399 146.145 64.0656 145.313 64.7323C144.481 65.3995 143.683 66.1082 142.922 66.8558C142.827 66.9475 142.733 67.0421 142.638 67.1395C142.449 67.3258 142.266 67.5149 142.092 67.704C141.811 67.9935 141.542 68.2915 141.276 68.5924C139.871 70.1869 138.629 71.9167 137.565 73.7563C137.031 74.6749 136.545 75.6209 136.11 76.5904C135.781 77.3154 135.48 78.0576 135.208 78.8084C135.028 79.3099 134.859 79.8162 134.702 80.3272C134.624 80.5823 134.55 80.8402 134.478 81.0981C134.235 81.9721 134.032 82.8547 133.866 83.7402C133.731 84.4509 133.622 85.1626 133.539 85.8751C133.496 86.2333 133.462 86.5916 133.43 86.9469C133.357 87.8203 133.319 88.6945 133.317 89.5696C133.312 92.1949 133.631 94.8107 134.266 97.3578C134.407 97.9195 134.562 98.4783 134.733 99.0342C134.819 99.3122 134.911 99.5873 135.002 99.8624C135.234 100.55 135.491 101.231 135.773 101.906C135.941 102.31 136.119 102.711 136.305 103.109C137.488 105.641 138.997 108.008 140.795 110.147C141.089 110.5 141.394 110.846 141.708 111.187C141.711 111.187 141.708 111.19 141.708 111.19C142.487 112.041 143.312 112.848 144.179 113.609H144.182C144.528 113.916 144.88 114.213 145.238 114.5C145.241 114.497 145.241 114.5 145.241 114.5C145.602 114.792 145.965 115.073 146.338 115.346C146.524 115.48 146.713 115.615 146.905 115.75C147.28 116.016 147.662 116.273 148.053 116.52H148.056C148.445 116.773 148.84 117.013 149.241 117.243C150.046 117.704 150.87 118.137 151.718 118.529L151.861 118.595L152.007 118.529C153.366 117.917 154.767 117.403 156.199 116.99C156.514 116.899 156.831 116.816 157.146 116.735C157.942 116.538 158.744 116.371 159.551 116.237C158.765 116.632 158.005 117.079 157.278 117.575C156.714 117.956 156.158 118.372 155.6 118.83C155.414 118.982 155.228 119.14 155.042 119.3L154.578 119.701L155.159 119.893C155.371 119.962 155.583 120.031 155.795 120.094C156.084 120.186 156.37 120.269 156.651 120.346C157.264 120.518 157.88 120.67 158.501 120.802C158.652 120.833 158.801 120.865 158.953 120.896C159.248 120.954 159.546 121.011 159.843 121.063C159.856 121.066 159.868 121.068 159.881 121.068C160.19 121.12 160.502 121.169 160.811 121.212C161.387 121.295 161.962 121.361 162.538 121.409C162.601 121.418 162.664 121.421 162.73 121.424C162.87 121.435 163.007 121.447 163.148 121.455C163.457 121.475 163.769 121.49 164.081 121.501C164.104 121.501 164.124 121.504 164.147 121.504C164.304 121.51 164.462 121.515 164.619 121.518C164.619 121.518 164.619 121.521 164.622 121.518C164.78 121.521 164.937 121.524 165.095 121.524H165.965C166.128 121.524 166.291 121.527 166.457 121.527C166.686 121.527 166.918 121.53 167.147 121.532C167.208 121.532 167.271 121.535 167.334 121.535C167.7 121.541 168.067 121.55 168.433 121.558C168.456 121.558 168.479 121.561 168.502 121.561C168.868 121.573 169.235 121.584 169.601 121.601C169.681 121.604 169.762 121.607 169.845 121.613C170.197 121.627 170.549 121.644 170.901 121.664C171.001 121.67 171.104 121.679 171.207 121.684C171.474 121.699 171.743 121.716 172.009 121.736C172.167 121.745 172.321 121.756 172.479 121.77C173.114 121.819 173.747 121.874 174.383 121.937C174.595 121.954 174.807 121.977 175.018 122C175.585 122.06 176.154 122.126 176.725 122.197C176.98 122.226 177.235 122.26 177.489 122.295C177.518 122.298 177.547 122.3 177.575 122.306C177.89 122.349 178.202 122.392 178.517 122.438C178.723 122.467 178.93 122.498 179.136 122.53C179.348 122.561 179.559 122.593 179.771 122.63C179.886 122.647 180 122.667 180.118 122.687C180.393 122.73 180.67 122.776 180.948 122.828C180.973 122.83 180.998 122.834 181.023 122.839C181.612 122.942 182.205 123.051 182.795 123.169C183.141 123.235 183.485 123.303 183.828 123.375C184.098 123.43 184.367 123.487 184.636 123.544C184.682 123.553 184.728 123.564 184.773 123.576C184.784 123.579 184.794 123.581 184.805 123.581C185.211 123.67 185.621 123.762 186.027 123.859C187.439 124.186 188.849 124.549 190.256 124.948C190.58 125.037 190.903 125.132 191.227 125.226C191.364 125.266 191.499 125.307 191.634 125.347C191.914 125.43 192.192 125.513 192.472 125.602C192.719 125.676 192.968 125.754 193.214 125.834C193.369 125.883 193.523 125.931 193.678 125.983C193.918 126.057 194.159 126.135 194.397 126.218C194.6 126.281 194.8 126.347 195.001 126.418C195.287 126.513 195.576 126.61 195.862 126.714C195.946 126.742 196.031 126.771 196.114 126.802C196.464 126.923 196.813 127.046 197.162 127.175C197.503 127.298 197.844 127.424 198.182 127.55C198.416 127.639 198.651 127.725 198.883 127.817C199.144 127.917 199.404 128.017 199.662 128.121C200.034 128.267 200.409 128.416 200.781 128.568C201.125 128.705 201.466 128.846 201.809 128.992C201.872 129.018 201.938 129.043 202.001 129.072C202.299 129.195 202.597 129.324 202.892 129.453C203.083 129.533 203.272 129.617 203.461 129.7C204.286 130.061 205.11 130.434 205.932 130.82H205.935C206.451 131.064 206.975 131.296 207.501 131.516C207.625 131.568 207.748 131.62 207.874 131.668C208.083 131.757 208.295 131.84 208.506 131.926C208.644 131.981 208.781 132.035 208.922 132.087C209.125 132.167 209.331 132.244 209.537 132.319C209.755 132.399 209.969 132.479 210.19 132.554C210.267 132.582 210.345 132.608 210.425 132.637C210.68 132.723 210.934 132.809 211.192 132.892C211.218 132.901 211.244 132.909 211.272 132.918C211.541 133.004 211.811 133.09 212.083 133.17C212.104 133.178 212.126 133.185 212.148 133.19C212.44 133.279 212.738 133.365 213.033 133.448C213.468 133.568 213.906 133.683 214.344 133.789C214.425 133.809 214.505 133.829 214.585 133.846C214.82 133.904 215.052 133.958 215.286 134.01C215.536 134.067 215.787 134.118 216.037 134.17C216.289 134.222 216.541 134.273 216.79 134.319C216.924 134.345 217.059 134.371 217.19 134.394L217.543 134.454C217.786 134.497 218.029 134.534 218.276 134.574C218.282 134.574 218.289 134.575 218.296 134.577C218.573 134.62 218.848 134.66 219.126 134.694C219.392 134.732 219.659 134.763 219.925 134.795C219.979 134.8 220.036 134.806 220.094 134.812C220.314 134.838 220.535 134.864 220.755 134.884C220.818 134.889 220.881 134.895 220.944 134.901C221.162 134.921 221.379 134.941 221.597 134.955C221.641 134.961 221.685 134.964 221.729 134.964C221.923 134.981 222.118 134.995 222.313 135.004C222.45 135.015 222.585 135.021 222.722 135.03C222.794 135.033 222.862 135.035 222.934 135.038C223.123 135.05 223.312 135.056 223.504 135.061C223.736 135.07 223.968 135.076 224.197 135.081C224.474 135.087 224.755 135.09 225.033 135.09H225.039C225.311 135.09 225.585 135.087 225.857 135.081H225.96L226.261 135.073C226.416 135.07 226.57 135.064 226.722 135.058C227.014 135.047 227.303 135.033 227.592 135.015C227.707 135.01 227.824 135.001 227.939 134.995C227.991 134.992 228.045 134.987 228.096 134.984C228.277 134.972 228.454 134.961 228.635 134.947C228.821 134.932 229.01 134.915 229.196 134.895C229.436 134.872 229.677 134.846 229.917 134.821C230.106 134.8 230.295 134.778 230.481 134.755C230.507 134.752 230.531 134.749 230.556 134.743C230.736 134.723 230.917 134.7 231.094 134.674C231.306 134.646 231.515 134.614 231.724 134.583C231.747 134.58 231.767 134.577 231.79 134.574C232.151 134.517 232.514 134.459 232.878 134.394C233.259 134.325 233.64 134.25 234.018 134.173C234.158 134.144 234.295 134.113 234.436 134.084C234.513 134.067 234.593 134.053 234.668 134.035C234.785 134.01 234.899 133.984 235.014 133.955C235.034 133.952 235.057 133.947 235.077 133.944C235.237 133.909 235.395 133.869 235.555 133.829C235.876 133.752 236.191 133.671 236.506 133.585C236.646 133.551 236.786 133.514 236.921 133.477C236.961 133.465 237.001 133.454 237.038 133.442C237.619 133.279 238.196 133.106 238.768 132.924C239.02 132.843 239.269 132.76 239.518 132.671C240.053 132.488 240.584 132.295 241.11 132.092C241.25 132.041 241.39 131.984 241.531 131.929C241.737 131.846 241.943 131.763 242.146 131.68C242.329 131.602 242.513 131.525 242.699 131.445C242.79 131.408 242.882 131.367 242.974 131.327C243.249 131.207 243.523 131.084 243.795 130.961C243.979 130.875 244.159 130.791 244.339 130.705C244.626 130.568 244.909 130.428 245.193 130.287C245.264 130.25 245.333 130.213 245.402 130.178C245.582 130.087 245.762 129.992 245.946 129.9C246.235 129.745 246.524 129.591 246.81 129.43C246.908 129.379 247.002 129.324 247.1 129.27C247.414 129.092 247.727 128.912 248.036 128.728C248.72 128.318 249.395 127.89 250.06 127.444C250.226 127.335 250.392 127.221 250.555 127.109C250.865 126.897 251.168 126.679 251.472 126.461C251.503 126.439 251.532 126.416 251.563 126.396C251.715 126.284 251.867 126.172 252.018 126.057C252.333 125.82 252.646 125.579 252.958 125.332C252.963 125.33 252.972 125.321 252.981 125.315C253.121 125.203 253.261 125.092 253.399 124.98C253.825 124.633 254.246 124.281 254.658 123.917C254.862 123.742 255.062 123.561 255.26 123.381C255.409 123.246 255.557 123.111 255.703 122.974C255.998 122.696 256.287 122.421 256.574 122.14C256.717 122.002 256.857 121.859 257 121.716C257.141 121.573 257.284 121.429 257.424 121.283C257.473 121.234 257.522 121.183 257.57 121.131C257.713 120.979 257.857 120.825 258 120.673C258.123 120.541 258.243 120.403 258.366 120.266C258.572 120.037 258.781 119.807 258.985 119.575C258.995 119.562 259.007 119.55 259.019 119.538C259.03 119.524 259.042 119.512 259.05 119.501H259.048C263.209 114.684 266.302 109.038 268.12 102.935C269.938 96.8327 270.44 90.4134 269.594 84.1021C268.748 77.7907 266.572 71.7312 263.21 66.3246C259.848 60.9179 255.378 56.2874 250.094 52.7396Z" fill="url(#paint6_linear_2457_54050)"/>
<g opacity="0.15">
<path d="M192.141 18.9226C192.712 20.9745 193.571 22.9351 194.691 24.7456C192.815 23.1321 191.138 21.2994 189.697 19.2867C190.507 19.1335 191.321 19.0121 192.141 18.9226Z" fill="black"/>
<path d="M164.203 50.6561C162.084 51.8136 160.103 53.2076 158.297 54.8113C161.346 51.2028 163.574 46.9739 164.827 42.4175C164.843 42.3628 164.858 42.3077 164.873 42.2529L164.915 42.0978C166.421 36.6598 169.344 31.7197 173.383 27.7828L173.7 27.4731L173.924 27.8559C175.163 29.9632 176.645 31.9173 178.339 33.6779C175.742 41.0122 170.689 47.1164 164.203 50.6561Z" fill="black"/>
<path d="M179.129 31.1367L179.086 31.2918C179.072 31.3466 179.056 31.4017 179.041 31.4564C178.958 31.758 178.869 32.0573 178.777 32.3553C177.871 30.0072 177.235 27.5637 176.881 25.0719L176.848 24.8604L177.021 24.7362C179.2 23.1692 181.566 21.8818 184.065 20.9038C181.822 23.992 180.15 27.4578 179.129 31.1367Z" fill="black"/>
<path d="M149.99 61.6172C151.865 60.5899 153.621 59.3566 155.223 57.9404C152.022 61.6711 149.727 66.0931 148.518 70.86C147.31 75.6268 147.221 80.609 148.258 85.416C149.295 90.2231 151.43 94.7246 154.496 98.5676C157.562 102.411 161.476 105.491 165.93 107.567L166.075 107.634L166.219 107.569C168.625 106.481 171.162 105.71 173.766 105.275C172.141 106.104 170.626 107.133 169.256 108.339L168.793 108.74L169.374 108.932C169.876 109.098 170.378 109.251 170.865 109.386C173.731 110.185 176.693 110.582 179.668 110.565C193.182 110.479 206.802 113.606 220.148 119.86C222.437 120.931 224.811 121.809 227.245 122.485C237.855 125.442 249.181 124.378 259.056 119.498C253.489 125.943 246.209 130.674 238.062 133.143C229.916 135.612 221.236 135.717 213.032 133.446C210.598 132.77 208.224 131.892 205.935 130.821C192.589 124.567 178.969 121.44 165.454 121.526C162.48 121.543 159.518 121.146 156.652 120.348C156.164 120.212 155.663 120.059 155.161 119.893L154.58 119.701L155.043 119.3C156.412 118.094 157.928 117.065 159.553 116.236C156.949 116.671 154.412 117.442 152.006 118.53L151.862 118.595L151.717 118.528C146.368 116.036 141.816 112.106 138.569 107.175C135.322 102.245 133.507 96.5079 133.328 90.6054C133.149 84.7029 134.612 78.8667 137.554 73.748C140.496 68.6293 144.802 64.4295 149.99 61.6172Z" fill="black"/>
</g>
</g>
<defs>
<linearGradient id="paint0_linear_2457_54050" x1="118.573" y1="133.313" x2="73.1192" y2="112.631" gradientUnits="userSpaceOnUse">
<stop stop-color="#4B68FF"/>
<stop offset="1" stop-color="#6A82FF"/>
</linearGradient>
<linearGradient id="paint1_linear_2457_54050" x1="95.9175" y1="161.85" x2="62.4244" y2="156.079" gradientUnits="userSpaceOnUse">
<stop stop-color="#4B68FF"/>
<stop offset="1" stop-color="#6A82FF"/>
</linearGradient>
<linearGradient id="paint2_linear_2457_54050" x1="96.3736" y1="156.937" x2="91.5687" y2="155.777" gradientUnits="userSpaceOnUse">
<stop stop-color="#4B68FF"/>
<stop offset="1" stop-color="#6A82FF"/>
</linearGradient>
<linearGradient id="paint3_linear_2457_54050" x1="102.631" y1="158.715" x2="59.6897" y2="146.752" gradientUnits="userSpaceOnUse">
<stop stop-color="#4B68FF"/>
<stop offset="1" stop-color="#6A82FF"/>
</linearGradient>
<linearGradient id="paint4_linear_2457_54050" x1="71.2029" y1="39.1923" x2="30.6944" y2="27.4573" gradientUnits="userSpaceOnUse">
<stop stop-color="#4B68FF"/>
<stop offset="1" stop-color="#6A82FF"/>
</linearGradient>
<linearGradient id="paint5_linear_2457_54050" x1="178.181" y1="159.342" x2="131.934" y2="145.462" gradientUnits="userSpaceOnUse">
<stop stop-color="#4B68FF"/>
<stop offset="1" stop-color="#6A82FF"/>
</linearGradient>
<linearGradient id="paint6_linear_2457_54050" x1="269.993" y1="135.09" x2="112.015" y2="81.2845" gradientUnits="userSpaceOnUse">
<stop stop-color="#4B68FF"/>
<stop offset="1" stop-color="#6A82FF"/>
</linearGradient>
<clipPath id="clip0_2457_54050">
<rect width="270" height="228" fill="white"/>
</clipPath>
</defs>
</svg>
